<?xml version="1.0" standalone="no"?>
<!DOCTYPE svg PUBLIC "-//W3C//DTD SVG 20010904//EN"
 "http://www.w3.org/TR/2001/REC-SVG-20010904/DTD/svg10.dtd">
<svg version="1.0" xmlns="http://www.w3.org/2000/svg"
 width="300.000000pt" height="300.000000pt" viewBox="0 0 300.000000 300.000000"
 preserveAspectRatio="xMidYMid meet">
<metadata>
Created by potrace 1.14, written by Peter Selinger 2001-2017
</metadata>
<g transform="translate(0.000000,300.000000) scale(0.100000,-0.100000)"
fill="#000000" stroke="none">
<path d="M1160 2759 c-179 -66 -368 -135 -420 -153 -52 -19 -144 -52 -205 -74
-60 -22 -159 -57 -220 -78 -154 -52 -172 -61 -187 -99 -10 -26 -13 -198 -11
-852 1 -450 2 -826 2 -835 2 -33 49 -75 98 -87 42 -11 627 -218 678 -241 11
-5 126 -47 255 -94 129 -47 259 -95 288 -107 60 -27 61 -26 232 39 58 22 294
109 525 192 231 84 454 164 495 180 41 15 92 33 112 39 24 8 44 24 56 44 18
31 19 64 18 872 -2 881 -1 871 -45 894 -10 6 -106 42 -212 80 -107 38 -212 76
-234 84 -184 71 -855 311 -875 312 -14 2 -171 -51 -350 -116z m530 -189 c91
-32 217 -77 280 -100 63 -23 126 -46 140 -50 80 -27 283 -100 297 -109 14 -7
11 -11 -18 -19 -18 -6 -227 -80 -463 -165 l-429 -154 -76 28 c-42 15 -250 90
-463 165 -213 76 -386 140 -384 142 2 1 59 23 127 47 68 24 162 57 209 74 431
156 587 209 600 205 8 -3 89 -32 180 -64z m-1219 -466 c172 -64 201 -74 394
-144 195 -71 363 -132 450 -164 l60 -22 3 -682 c1 -375 0 -682 -2 -682 -5 0
-145 50 -441 159 -506 186 -580 214 -584 217 -4 3 -8 1364 -5 1364 1 0 57 -21
125 -46z m2175 -643 l0 -679 -511 -186 c-280 -102 -513 -186 -518 -186 -4 0
-6 307 -5 682 l3 682 160 58 c88 31 196 71 240 87 44 16 163 59 265 95 102 37
217 80 255 96 125 51 111 132 111 -649z"/>
</g>
</svg>
